<?xml version="1.0" encoding="UTF-8"?>
<svg width="78px" height="78px" viewBox="0 0 78 78" version="1.1" xmlns="http://www.w3.org/2000/svg" xmlns:xlink="http://www.w3.org/1999/xlink">
    <title>Group 73</title>
    <g id="Page-1" stroke="none" stroke-width="1" fill="none" fill-rule="evenodd">
        <g id="1-Index-Copy-3" transform="translate(-724.000000, -1437.000000)">
            <g id="Group-70" transform="translate(118.000000, 1225.000000)">
                <g id="Group-69" transform="translate(369.000000, 1.000000)">
                    <g id="Group-73" transform="translate(238.000000, 212.000000)">
                        <circle id="Oval" stroke="#FF8C38" fill="#FFFFFF" cx="38" cy="38" r="38"/>
                        <g id="Group-66" transform="translate(14.000000, 14.000000)">
                            <g id="Group-65">
                                <path d="M9.20226283,39.1561013 C13.5278914,40.8462235 17.9991254,41.5088561 22.5938788,41.3198831 C23.9043283,41.2658908 25.2098697,41.0646469 26.5203192,41.0294701 C27.376774,41.0065642 27.8054105,40.6359808 28.1702422,39.8866333 C33.3539616,29.2419718 38.5671293,18.6128536 43.7729349,7.97964497 C43.8408296,7.84057393 43.9136324,7.70395708 43.970893,7.5607957 C44.2702841,6.81635657 44.7831754,6.33369824 45.5758255,6.74518492 C46.3234852,7.13294772 46.1459774,7.80212487 45.8261361,8.45330459 C42.802777,14.61497 39.7884159,20.7815438 36.7732368,26.9464815 C34.3830162,31.8319655 31.9846155,36.7133592 29.6164811,41.6094781 C29.2271091,42.4128179 28.7215799,42.8054891 27.7939583,42.9461963 C24.1063764,43.5032986 20.4196124,43.5098431 16.6674077,43.3928598 C18.6019977,43.8575207 20.5161374,44.4522539 22.4752676,44.7565741 C25.5215309,45.2302337 28.5988786,45.4961048 31.6606842,45.8732328 C32.4680585,45.9730367 32.8754267,45.6654443 33.2353504,44.9226413 C37.3581129,36.420492 41.5225938,27.9387943 45.6756225,19.4505521 C45.7770556,19.2427636 45.82041,18.932717 45.9848297,18.8427298 C46.4355524,18.5989464 46.9934341,18.2111836 47.4040743,18.3118056 C48.0592991,18.4713283 48.1337379,19.1020564 47.8237127,19.7311484 C47.1586718,21.0793195 46.5206252,22.4413976 45.8596744,23.7920229 C42.1491882,31.3779395 38.4174338,38.9532211 34.7421219,46.555499 C34.2349567,47.6034402 33.6230864,48.0353785 32.4345201,47.9977475 C21.2973354,47.6435254 10.9765231,44.7312141 1.73957195,38.3486711 C1.64468298,38.2832259 1.549794,38.2169627 1.45572303,38.1490633 C-0.319355255,36.8450677 -0.32180928,36.8434316 0.649166722,34.9013453 C5.56212533,25.0731127 10.4898081,15.2522426 15.3708644,5.40846675 C15.8543074,4.4333333 16.4449094,4.10119891 17.5197725,4.09547246 C24.3403268,4.05784147 31.0938043,3.48928631 37.569977,1.11526175 C38.2922785,0.850208694 38.9597734,0.428087166 39.6918909,0.206391557 C40.2162343,0.0476869514 40.9254476,-0.115107979 41.3377239,0.112314085 C42.026487,0.492714299 41.644477,1.16107339 41.3614461,1.73699113 C37.2534078,10.1188849 33.1560036,18.504869 29.0561453,26.8908531 C27.5485558,29.9733219 26.0188801,33.0459739 24.5489189,36.1472583 C24.1382787,37.0144072 23.5534027,37.5256978 22.6634095,37.868467 C18.7492392,39.3745246 14.6960074,39.6003105 10.575699,39.3008988 C10.1167962,39.2673581 9.66034755,39.2051852 9.20226283,39.1561013" id="Fill-35" fill="#FF8C38"/>
                                <path d="M42.2536753,2.739374 L43.032083,5.92403451 L26.8519059,39.3836418 C24.2911425,39.6511822 22.138335,39.8663088 20.3934834,40.0290216 C19.0461747,40.3237431 17.8034782,40.428096 16.6662659,40.3426185 C15.525689,40.4185021 14.9071032,40.4284896 14.8099388,40.3714854 L15.6542455,40.2112591 C15.36515,40.1569918 15.0837144,40.0889395 14.8099388,40.0071022 L14.8099388,40.0071022 L25.1681128,38.3957983 L25.1681128,38.3957983 L42.2536753,2.739374 Z" id="Combined-Shape" fill="#955DEF"/>
                            </g>
                            <polygon id="Path-5" fill="#955DEF" points="25.1681128 44.0213708 29.6173194 43.49842 45.5642302 11.5671344 45.5642302 16.590784 31.9084157 44.0213708"/>
                        </g>
                    </g>
                </g>
            </g>
        </g>
    </g>
</svg>