<?xml version="1.0" encoding="UTF-8"?>
<svg width="78px" height="78px" viewBox="0 0 78 78" version="1.1" xmlns="http://www.w3.org/2000/svg" xmlns:xlink="http://www.w3.org/1999/xlink">
    <title>Group 72</title>
    <g id="Page-1" stroke="none" stroke-width="1" fill="none" fill-rule="evenodd">
        <g id="1-Index-Copy-3" transform="translate(-1093.000000, -1437.000000)">
            <g id="Group-70" transform="translate(118.000000, 1225.000000)">
                <g id="Group-32" transform="translate(739.000000, 1.000000)">
                    <g id="Group-72" transform="translate(237.000000, 212.000000)">
                        <circle id="Oval" stroke="#FF8C38" fill="#FFFFFF" cx="38" cy="38" r="38"/>
                        <g id="Group-64" transform="translate(17.000000, 13.000000)">
                            <g id="Group-61">
                                <path d="M34.6106177,0.0650424274 C35.5469777,0.0650424274 36.4857677,-0.0483575726 37.3856777,0.0909624274 C38.8363877,0.315332427 39.7419677,1.54815243 39.7492577,3.11793243 C39.7630277,6.07362243 39.7573577,9.02931243 39.7565477,11.9858124 C39.7565477,23.4780924 39.7557377,34.9695624 39.7516877,46.4618424 C39.7516877,48.1628424 38.8760777,49.4345424 37.4415677,49.8087624 C37.1248577,49.8905724 36.7846577,49.9075824 36.4549877,49.9083924 C26.3793977,49.9140624 16.3046177,49.9164924 6.22902769,49.9140624 C4.24614769,49.9140624 2.86995769,48.5330124 2.86185769,46.5485124 C2.85537769,44.8880124 2.86104769,43.2275124 2.86104769,41.5143624 L4.35306769,41.5143624 C4.36197769,41.6925624 4.37979769,41.8934424 4.38060769,42.0935124 C4.38303769,43.5280224 4.37817769,44.9625324 4.38303769,46.3970424 C4.38708769,47.7157224 5.06910769,48.3904524 6.39831769,48.3904524 C16.3515977,48.3920724 26.3040677,48.3912624 36.2565377,48.3912624 C37.6068077,48.3912624 38.2305077,47.7643224 38.2305077,46.3889424 C38.2321277,38.3602224 38.2296977,30.3315024 38.2288877,22.3027824 C38.2288877,16.0058424 38.2313177,9.70890243 38.2272677,3.41115243 C38.2264577,2.02281243 37.7121077,1.52466243 36.3180977,1.52385243 C35.8669277,1.52304243 35.4157577,1.52385243 34.9791677,1.52385243 C34.8471377,1.00221243 34.7288777,0.535652427 34.6106177,0.0650424274" id="Fill-1" fill="#FF8C38"/>
                                <path d="M36.3022217,1.52603943 C36.0924317,1.52603943 35.8899317,1.52603943 35.6866217,1.52603943 C31.0210217,1.52684943 11.0423717,1.52765943 6.37677169,1.53089943 C6.18561169,1.53089943 5.99202169,1.53413943 5.80248169,1.56005943 C4.90500169,1.68398943 4.39875169,2.24369943 4.38822169,3.15089943 C4.37445169,4.28651943 4.38255169,5.42294943 4.38174169,6.55856943 C4.38174169,6.74648943 4.38174169,6.93440943 4.38174169,7.15634943 L2.86056169,7.15634943 C2.86056169,6.63389943 2.86056169,6.13331943 2.86056169,5.63354943 C2.86056169,4.84703943 2.85975169,4.06052943 2.85975169,3.27401943 C2.85975169,1.31057943 4.12173169,0.0170094274 6.09327169,0.00809942743 C9.57060169,-0.00648057257 13.0479317,0.00323942743 16.5252617,0.00242942743 C17.5037417,0.00242942743 33.7944617,-0.00243057257 34.7729417,0.00728942743 C35.6744717,0.0153894274 36.2050217,0.527309427 36.3022217,1.52603943" id="Fill-3" fill="#FF8C38"/>
                                <path d="M23.2524737,42.9851604 C20.3502437,42.9851604 17.4472037,42.9851604 14.5449737,42.9843504 C14.3708237,42.9843504 14.1926237,42.9916404 14.0225237,42.9600504 C13.6248137,42.8863404 13.4061114,42.6214704 13.4061114,42.2286204 C13.4053037,41.8382004 13.6159037,41.5660404 14.0144237,41.4899004 C14.1845237,41.4566904 14.3627237,41.4615504 14.5368737,41.4615504 C20.3421437,41.4615504 26.1466037,41.4623604 31.9510637,41.4639804 C32.0563637,41.4639804 32.1616637,41.4607404 32.2661537,41.4664104 C32.7715937,41.4939504 33.0980237,41.7896004 33.0996452,42.2197104 C33.1004537,42.6498204 32.7772637,42.9754404 32.2742537,42.9803004 C30.8057237,42.9948804 29.3371937,42.9875904 27.8678537,42.9884004 C26.3296637,42.9892104 24.7906637,42.9884004 23.2524737,42.9884004 L23.2524737,42.9851604 Z" id="Fill-5" fill="#955DEF"/>
                                <path d="M23.2476947,38.2615644 C20.3454647,38.2615644 17.4424247,38.2623744 14.5401947,38.2599444 C14.3312147,38.2599444 14.0533847,38.3125944 13.9286447,38.2032444 C13.7042747,38.0064144 13.4596547,37.7188644 13.4264447,37.4442744 C13.3827047,37.0732944 13.6637747,36.7914144 14.0712047,36.7598244 C14.4543347,36.7290444 14.8398947,36.7379544 15.2246447,36.7371444 C20.8023047,36.7363344 26.3799647,36.7371444 31.9576247,36.7371444 C32.0629247,36.7371444 32.1682247,36.7339044 32.2727147,36.7411944 C32.7732947,36.7719744 33.1005347,37.0749144 33.1013447,37.5025944 C33.1013447,37.9327044 32.7724847,38.2526544 32.2702847,38.2575144 C30.9418847,38.2696644 29.6126747,38.2648044 28.2834647,38.2656144 C26.6051447,38.2664244 24.9268247,38.2656144 23.2476947,38.2656144 L23.2476947,38.2615644 Z" id="Fill-7" fill="#955DEF"/>
                                <path d="M23.2903817,32.0172744 C26.1756017,32.0172744 29.0608217,32.0172744 31.9452317,32.0180844 C32.1193817,32.0180844 32.2983917,32.0075544 32.4684917,32.0375244 C32.8670117,32.1088044 33.0849017,32.3777244 33.091492,32.7665244 C33.0970517,33.1569444 32.8840217,33.4274844 32.4879317,33.5117244 C32.3526617,33.5400744 32.2092917,33.5368344 32.0699717,33.5368344 C26.1772217,33.5392644 20.2852817,33.5392644 14.3933417,33.5433144 C14.0037317,33.5433144 13.6125017,33.5011944 13.4918117,33.0832344 C13.4237717,32.8499544 13.4448317,32.4708744 13.5914417,32.3250744 C13.7834117,32.1355344 14.1390017,32.0318544 14.4257417,32.0302344 C17.3806217,32.0099844 20.3355017,32.0172744 23.2903817,32.0172744" id="Fill-9" fill="#955DEF"/>
                                <path d="M23.3026937,28.8188274 L14.5425437,28.8188274 C14.4898937,28.8188274 14.4380537,28.8180174 14.3854037,28.8163974 C13.7503637,28.8010074 13.3980137,28.5304674 13.3971983,28.0558074 C13.3955837,27.5795274 13.7576537,27.2935974 14.3805437,27.2927874 C15.6919337,27.2895474 17.0041337,27.2903574 18.3147137,27.2903574 C22.8612437,27.2911674 27.4069637,27.2927874 31.9534937,27.2944074 C32.0579837,27.2944074 32.1632837,27.2911674 32.2677737,27.2968374 C32.7764537,27.3243774 33.0972137,27.6167874 33.0996497,28.0517574 C33.1012637,28.4810574 32.7748337,28.8050574 32.2718237,28.8091074 C30.5416637,28.8212574 28.8098837,28.8172074 27.0797237,28.8188274 C25.8201737,28.8188274 24.5614337,28.8188274 23.3026937,28.8188274" id="Fill-11" fill="#955DEF"/>
                                <path d="M23.2524737,24.3321564 C20.3502437,24.3321564 17.4472037,24.3321564 14.5449737,24.3313464 C14.3708237,24.3313464 14.1926237,24.3386364 14.0225237,24.3070464 C13.6248137,24.2333364 13.4061114,23.9684664 13.4061114,23.5756164 C13.4053037,23.1851964 13.6159037,22.9130364 14.0144237,22.8360864 C14.1845237,22.8036864 14.3627237,22.8085464 14.5368737,22.8085464 C20.3421437,22.8085464 26.1466037,22.8093564 31.9510637,22.8109764 C32.0563637,22.8109764 32.1616637,22.8077364 32.2661537,22.8134064 C32.7715937,22.8409464 33.0980237,23.1365964 33.0996452,23.5667064 C33.1004537,23.9968164 32.7772637,24.3224364 32.2742537,24.3272964 C30.8057237,24.3418764 29.3371937,24.3345864 27.8678537,24.3353964 C26.3296637,24.3362064 24.7906637,24.3353964 23.2524737,24.3353964 L23.2524737,24.3321564 Z" id="Fill-13" fill="#955DEF"/>
                                <path d="M23.2476947,19.6086414 C20.3454647,19.6086414 17.4424247,19.6094514 14.5401947,19.6070214 C14.3312147,19.6070214 14.0533847,19.6588614 13.9286447,19.5503214 C13.7042747,19.3534914 13.4596547,19.0651314 13.4264447,18.7913514 C13.3827047,18.4203714 13.6637747,18.1384914 14.0712047,18.1069014 C14.4543347,18.0761214 14.8398947,18.0850314 15.2246447,18.0842214 C20.8023047,18.0834114 26.3799647,18.0842214 31.9576247,18.0842214 C32.0629247,18.0842214 32.1682247,18.0809814 32.2727147,18.0882714 C32.7732947,18.1190514 33.1005347,18.4219914 33.1013447,18.8496714 C33.1013447,19.2797814 32.7724847,19.5997314 32.2702847,19.6045914 C30.9418847,19.6167414 29.6126747,19.6118814 28.2834647,19.6126914 C26.6051447,19.6135014 24.9268247,19.6126914 23.2476947,19.6126914 L23.2476947,19.6086414 Z" id="Fill-15" fill="#955DEF"/>
                                <path d="M23.2903817,13.3643514 C26.1756017,13.3643514 29.0608217,13.3643514 31.9452317,13.3651614 C32.1193817,13.3651614 32.2983917,13.3546314 32.4684917,13.3846014 C32.8670117,13.4558814 33.0849017,13.7248014 33.091492,14.1136014 C33.0970517,14.5040214 32.8840217,14.7745614 32.4879317,14.8588014 C32.3526617,14.8871514 32.2092917,14.8839114 32.0699717,14.8839114 C26.1772217,14.8863414 20.2852817,14.8855314 14.3933417,14.8903914 C14.0037317,14.8903914 13.6125017,14.8482714 13.4918117,14.4303114 C13.4237717,14.1970314 13.4448317,13.8179514 13.5914417,13.6721514 C13.7834117,13.4826114 14.1390017,13.3789314 14.4257417,13.3773114 C17.3806217,13.3570614 20.3355017,13.3643514 23.2903817,13.3643514" id="Fill-17" fill="#955DEF"/>
                                <path d="M23.3026937,10.1654994 C20.3826437,10.1654994 17.4625937,10.1654994 14.5425437,10.1654994 C14.4898937,10.1654994 14.4380537,10.1646894 14.3854037,10.1638794 C13.7503637,10.1484894 13.3980137,9.87713943 13.3971983,9.40328943 C13.3955837,8.92619943 13.7576537,8.64107943 14.3805437,8.63945943 C15.6919337,8.63621943 17.0041337,8.63702943 18.3147137,8.63783943 C22.8612437,8.63864943 27.4069637,8.64026943 31.9534937,8.64107943 C32.0579837,8.64107943 32.1632837,8.63864943 32.2677737,8.64431943 C32.7764537,8.67104943 33.0972137,8.96345943 33.0996497,9.39842943 C33.1012637,9.82853943 32.7748337,10.1517294 32.2718237,10.1557794 C30.5416637,10.1687394 28.8098837,10.1646894 27.0797237,10.1654994 C25.8201737,10.1663094 24.5614337,10.1654994 23.3026937,10.1654994" id="Fill-19" fill="#955DEF"/>
                                <path d="M3.03130969,18.6871044 C3.76435969,18.6871044 4.49902969,18.7081644 5.23045969,18.6741444 C5.43862969,18.6644244 5.69215969,18.5437344 5.83552969,18.3906444 C6.46327969,17.7183444 7.35832969,17.6251944 8.03062969,18.2027244 C8.66404969,18.7462344 8.74585969,19.7247144 8.21206969,20.3702844 C7.66207969,21.0344844 6.61312969,21.1405944 5.96674969,20.5403844 C5.68000969,20.2738944 5.39812969,20.2001844 5.03524969,20.2034244 C3.69064969,20.2163844 2.34604969,20.2285344 1.00225969,20.1912744 C0.727669695,20.1839844 0.376129695,20.0357544 0.203599695,19.8308244 C-0.226510305,19.3205244 0.0610396949,18.7243644 0.726859695,18.7008744 C1.49473969,18.6725244 2.26342969,18.6935844 3.03130969,18.6935844 L3.03130969,18.6871044 Z" id="Fill-21" fill="#955DEF"/>
                                <path d="M3.07715569,28.4450934 C3.54857569,28.4450934 4.01999569,28.4369934 4.49060569,28.4475234 C5.11511569,28.4612934 5.66996569,28.4580534 6.19241569,27.9291234 C6.75617569,27.3588834 7.71602569,27.5662434 8.22956569,28.2061434 C8.72771569,28.8257934 8.66372569,29.7467634 8.08619569,30.2975634 C7.50299569,30.8532234 6.48077569,30.9010134 5.95022569,30.3323934 C5.67887569,30.0416034 5.40995569,29.9638434 5.04221569,29.9678934 C3.75107569,29.9824734 2.45993569,29.9735634 1.16798569,29.9719434 C1.02866569,29.9719434 0.887725695,29.9784234 0.750025695,29.9606034 C0.290755695,29.9022834 0.00239569492,29.5531734 0.0315556949,29.0922834 C0.0607156949,28.6305834 0.362845695,28.4612934 0.773515695,28.4556234 C1.54139569,28.4442834 2.30927569,28.4523834 3.07715569,28.4523834 L3.07715569,28.4450934 Z" id="Fill-23" fill="#955DEF"/>
                                <path d="M8.55931669,39.2159064 C8.54230669,39.6800364 8.24827669,40.1555064 7.67722669,40.4195664 C7.06891669,40.7014464 6.45979669,40.6334064 5.96974669,40.1741364 C5.68624669,39.9076464 5.40436669,39.8266464 5.03743669,39.8306964 C3.70822669,39.8444664 2.37901669,39.8396064 1.04980669,39.8323164 C0.861076695,39.8315064 0.650476695,39.8282664 0.489286695,39.7472664 C0.122356695,39.5633964 -0.0266833051,39.2337264 0.0454066949,38.8271064 C0.119116695,38.4115764 0.443116695,38.3216664 0.793036695,38.3192364 C2.20972669,38.3103264 3.62641669,38.3054664 5.04310669,38.3176164 C5.41084669,38.3208564 5.68705669,38.2552464 5.94220669,37.9377264 C6.33100669,37.4541564 7.03732669,37.3496664 7.62295669,37.5967164 C8.20939669,37.8445764 8.56579669,38.3945664 8.55931669,39.2159064" id="Fill-25" fill="#955DEF"/>
                                <path d="M3.04556569,10.3419174 C2.36354569,10.3419174 1.68152569,10.3467774 0.999505695,10.3386774 C0.827785695,10.3362474 0.636625695,10.3297674 0.490825695,10.2552474 C0.123895695,10.0681374 -0.0235243051,9.74089743 0.0453256949,9.33508743 C0.110935695,8.94952743 0.404155695,8.83612743 0.740305695,8.83126743 C1.64993569,8.81830743 2.55875569,8.82073743 3.46838569,8.81830743 C4.06292569,8.81668743 4.65908569,8.83936743 5.25200569,8.80534743 C5.44802569,8.79400743 5.68535569,8.68789743 5.81900569,8.54533743 C6.43946569,7.88923743 7.37906569,7.78960743 8.02382569,8.34688743 C8.66453569,8.89849743 8.74877569,9.86887743 8.21336569,10.5152574 C7.65122569,11.1932274 6.63629569,11.2928574 5.96966569,10.6804974 C5.68454569,10.4188674 5.40752569,10.3143774 5.03897569,10.3378674 C4.70768569,10.3589274 4.37477569,10.3435374 4.04186569,10.3443474 C3.70976569,10.3443474 3.37766569,10.3443474 3.04556569,10.3443474 L3.04556569,10.3419174 Z" id="Fill-27" fill="#955DEF"/>
                            </g>
                            <path d="M4.34440069,36.6245544 C2.87830069,36.8651244 2.86129069,36.8513544 2.86048069,35.4743544 C2.85967069,34.4278344 2.85805069,33.3821244 2.85724069,32.3364144 C2.85643069,32.1144744 2.85724069,31.8933444 2.85724069,31.6325244 L4.34440069,31.6325244 L4.34440069,36.6245544 Z" id="Fill-29" fill="#FF8C38"/>
                            <path d="M4.34245669,16.9832694 C4.27441669,17.0140494 4.24444669,17.0367294 4.21204669,17.0399694 C2.86987669,17.1833394 2.86582669,17.1833394 2.86096669,15.8525094 C2.85610669,14.5848594 2.85934669,13.3163994 2.85934669,12.0090594 L4.34245669,12.0090594 L4.34245669,16.9832694 Z" id="Fill-31" fill="#FF8C38"/>
                            <path d="M2.88494269,26.8227444 L2.88494269,21.8452944 C3.31910269,21.8452944 3.74678269,21.8307144 4.17122269,21.8598744 C4.24817269,21.8647344 4.37210269,22.0469844 4.37291269,22.1482344 C4.38668269,23.5957044 4.39073269,25.0431744 4.36886269,26.4898344 C4.36643269,26.6024244 4.16393269,26.7919644 4.03676269,26.8073544 C3.67874269,26.8510944 3.31262269,26.8227444 2.88494269,26.8227444" id="Fill-33" fill="#FF8C38"/>
                        </g>
                    </g>
                </g>
            </g>
        </g>
    </g>
</svg>