<?xml version="1.0" encoding="UTF-8"?>
<svg width="78px" height="78px" viewBox="0 0 78 78" version="1.1" xmlns="http://www.w3.org/2000/svg" xmlns:xlink="http://www.w3.org/1999/xlink">
    <title>Group 74</title>
    <g id="Page-1" stroke="none" stroke-width="1" fill="none" fill-rule="evenodd">
        <g id="1-Index-Copy-3" transform="translate(-355.000000, -1437.000000)">
            <g id="Group-70" transform="translate(118.000000, 1225.000000)">
                <g id="Group-67" transform="translate(0.000000, 1.000000)">
                    <g id="Group-74" transform="translate(238.000000, 212.000000)">
                        <circle id="Oval" stroke="#FF8C38" fill="#FFFFFF" cx="38" cy="38" r="38"/>
                        <g id="Group-63" transform="translate(13.000000, 17.000000)">
                            <path d="M39.1981574,35.965193 L39.1981574,28.4766014 L50.6820199,28.4766014 C50.6916702,28.3095033 50.7053414,28.1764737 50.7053414,28.0450664 C50.7069498,19.9180951 50.7069498,11.791935 50.7061456,3.66577479 C50.7061456,2.77025864 50.2413226,2.30303282 49.3663617,2.30303282 C42.1841225,2.30303282 35.0026875,2.30222167 27.8212526,2.30303282 C19.9248909,2.30384398 12.0293334,2.30627745 4.13216748,2.30789976 C3.93514043,2.30789976 3.73811338,2.30222167 3.54108633,2.30384398 C2.79318772,2.31195554 2.29860961,2.78404829 2.29539285,3.53112291 C2.28815512,5.14532322 2.29860961,6.76033469 2.29941381,8.37534616 C2.30102219,10.226404 2.29860961,12.0766507 2.29780542,13.9277085 C2.29780542,15.7909337 2.29619704,17.6541589 2.29619704,19.5173841 C2.29539285,21.3927766 2.29539285,23.2689803 2.29458865,25.1443728 L2.29458865,28.4579448 L3.99304226,28.4579448 L3.99304226,35.9603261 C1.80001055,36.2280075 0.0195293571,34.6713993 0.0139000127,32.4788448 C0.00424970819,28.8391881 0.0122916286,25.2003426 0.0106832446,21.5606859 C0.00907486046,18.2065561 0,14.8532375 0,11.4991077 C0,8.81661499 -0.00298802022,6.13331115 0.0147042048,3.45081847 C0.0283754696,1.52675659 1.51773914,0.0188177063 3.42126171,0.0123284588 C7.83868862,-0.00227234805 12.2569197,0.00421689943 16.6751508,0.0034057435 C22.2256843,0.00178343163 27.7762178,-0.000650036182 33.3267513,0 C38.7421806,0.00097227569 44.1568056,-0.000650036182 49.5714306,0.0115173029 C51.4862119,0.0155730825 52.977184,1.55109127 52.9828133,3.48488702 C52.9892468,5.96783534 53,8.45078366 53,10.933732 C53,13.5156413 52.9844217,16.0975507 52.9844217,18.6802712 C52.9844217,21.275159 53,23.8692357 53,26.4641235 C53,28.5252708 53.0013097,30.586418 52.9787923,32.6475652 C52.9586875,34.4110182 51.4765616,35.9668153 49.73629,35.9822273 C46.2750474,36.0146735 42.8130007,35.9927723 39.3509539,35.9927723 C39.3155695,35.9927723 39.280185,35.980605 39.1981574,35.965193" id="Fill-44" fill="#FF8C38"/>
                            <path d="M27.6772164,41.3694487 C27.6861489,40.7938909 27.2541428,40.3268988 26.7133231,40.327696 C26.1522023,40.327696 25.6990831,40.7914961 25.6942109,41.3718435 C25.6885266,41.9593755 26.1221568,42.4183849 26.693022,42.4319556 C27.2500826,42.4439297 27.6666599,41.9929031 27.6772164,41.3694487 M21.3051261,43.9933856 C21.4545418,43.7626835 21.5795962,43.5830712 21.6892218,43.3962743 C22.0676332,42.7504681 22.1788829,42.0495808 22.1569577,41.3135693 C22.1390928,40.7052821 22.1528975,40.0961967 22.1528975,39.4448026 L36.6543362,39.4448026 L36.6543362,14.3030644 L16.3191908,14.3030644 L16.3191908,18.2449569 L14,18.2449569 L14,17.8202734 C14.000812,16.4879489 14.0040602,15.1548261 14.0024361,13.8217033 C14.0016241,12.775162 14.7568228,12.0167987 15.8295297,12.0136056 C17.9351535,12.0064211 20.0407774,12.0080177 22.1455891,12.0072194 C25.130654,12.0064211 28.1157189,12.0080177 31.1007838,12.0072194 C33.0837893,12.0064211 35.0676069,12.0056228 37.0498004,12.0000174 C38.3125251,11.9960435 38.9954521,12.6737808 38.9954521,13.9278742 C38.99464,19.5964401 38.9970761,25.2658042 38.9987002,30.9343701 C38.9995123,34.5505655 39.0035725,38.1667609 38.9913918,41.7829563 C38.9897678,42.142181 38.9377971,42.525354 38.8021862,42.8534459 C38.5277161,43.5160159 38.0364309,44.0085529 37.0847182,43.9998874 C34.1548722,43.9734287 31.2242141,43.9925873 28.294368,43.9933856 C25.9857338,43.9933856 23.6762875,43.9933856 21.3051261,43.9933856" id="Fill-46" fill="#955DEF"/>
                            <path d="M13.3902896,42.3154933 C13.3862629,41.7298915 12.9562103,41.2661208 12.4190471,41.2685479 C11.8577238,41.2718063 11.4147857,41.7380136 11.4123601,42.3293008 C11.4099536,42.9392689 11.8665825,43.4127861 12.4456234,43.3997908 C12.9642637,43.389232 13.3951217,42.8945975 13.3902896,42.3154933 L13.3902896,42.3154933 Z M7.31801082,39.7481044 L17.6787359,39.7481044 L17.6787359,22.3449275 L7.31801082,22.3449275 L7.31801082,39.7481044 Z M5.01473265,32.4439195 C5.01473265,29.0976233 5.04533564,25.7505148 5.00023649,22.405843 C4.98090828,20.9406201 6.14945955,19.9927736 7.35908326,20.0000415 C10.82447,20.0244497 14.290662,19.9992713 17.756854,20.0082056 C19.0751989,20.0114544 19.9981209,20.9942259 19.9981209,22.3619838 C20.0005369,27.8484476 19.9989262,33.3340992 19.9989262,38.8205631 C19.9989262,40.0518701 20.0013422,41.2831772 19.9989262,42.5152964 C19.9948995,44.0089466 19.021241,44.9999287 17.5442437,44.9999287 C14.1585859,45.0006524 10.7729281,44.9957791 7.38646489,44.9892815 C5.98597512,44.9868448 5.01875936,44.0146321 5.01714867,42.5940806 C5.01070594,39.2104228 5.01473265,35.826765 5.01473265,32.4439195 L5.01473265,32.4439195 Z" id="Fill-48" fill="#FF8C38"/>
                            <path d="M44.9703255,44 L40.0606017,44 C40.0411681,43.9617688 40.0108515,43.9294848 40.0108515,43.8963511 C40.0054101,42.7783023 39.9859764,41.6602534 40.0178476,40.5430542 C40.0232891,40.3518984 40.2222899,40.1182636 40.3886422,40.0061189 C40.455494,39.9610911 40.6894755,40.1751856 40.8231792,40.3009236 C40.8985818,40.3714388 40.9421132,40.498876 40.9700977,40.6093215 C41.2134074,41.6101282 41.8873672,42.1258239 42.7191285,42.4427177 C43.2904786,42.6610601 43.8781529,42.827578 44.454167,43.0289287 C45.0216304,43.2285803 45.0426187,43.2761568 44.9703255,44" id="Fill-50" fill="#FF8C38"/>
                        </g>
                    </g>
                </g>
            </g>
        </g>
    </g>
</svg>