<?xml version="1.0" encoding="UTF-8"?>
<svg width="78px" height="78px" viewBox="0 0 78 78" version="1.1" xmlns="http://www.w3.org/2000/svg" xmlns:xlink="http://www.w3.org/1999/xlink">
    <title>Group 71</title>
    <g id="Page-1" stroke="none" stroke-width="1" fill="none" fill-rule="evenodd">
        <g id="1-Index-Copy-3" transform="translate(-1462.000000, -1437.000000)">
            <g id="Group-70" transform="translate(118.000000, 1225.000000)">
                <g id="Group-68" transform="translate(1102.000000, 0.000000)">
                    <g id="Group-71" transform="translate(243.000000, 213.000000)">
                        <circle id="Oval" stroke="#FF8C38" fill="#FFFFFF" cx="38" cy="38" r="38"/>
                        <g id="Group-60" transform="translate(12.000000, 15.000000)">
                            <path d="M24.7673249,14.667394 C24.7891949,14.976814 24.8167349,15.176074 24.8167349,15.376144 C24.8183549,20.764264 24.8175449,26.153194 24.8183549,31.541314 C24.8183549,32.836504 24.8143049,34.132504 24.8345549,35.426884 C24.8410349,35.869144 24.6887549,36.149404 24.2878049,36.359194 C22.7682449,37.157044 22.0319549,38.824834 22.4320949,40.486954 C22.8192749,42.095614 24.2950949,43.272544 25.9580249,43.299274 C27.6995249,43.326814 29.1712949,42.227644 29.6346149,40.551754 C30.0776849,38.952004 29.3940449,37.265584 27.9109349,36.435334 C27.4208849,36.160744 27.2483549,35.812444 27.2491649,35.273794 C27.2637449,28.556464 27.2645549,21.838324 27.2694149,15.120184 C27.2694149,15.000304 27.2856149,14.881234 27.3779549,14.733814 C27.4621949,14.846404 27.5529149,14.954134 27.6298649,15.071584 C29.8030949,18.389344 31.9738949,21.707914 34.1471249,25.026484 C35.4350249,26.991544 36.7172549,28.960654 38.0181149,30.917614 C38.4093449,31.505674 38.4854849,32.100214 38.3105249,32.778994 C37.3247549,36.619204 36.3576149,40.464274 35.3848049,44.308534 C35.3572649,44.417884 35.3370149,44.528854 35.3029949,44.686804 C35.4884849,44.694904 35.6529149,44.707054 35.8181549,44.708674 C36.2644649,44.711914 36.7132049,44.692474 37.1587049,44.716774 C37.9711349,44.759704 38.4555149,45.248134 38.452291,45.986044 C38.4474149,46.691554 37.9492649,47.185654 37.1441249,47.198614 C35.5281749,47.222914 33.9114149,47.214004 32.2946549,47.214814 C27.4111649,47.217244 22.5268649,47.218054 17.6433749,47.217244 C16.8528149,47.217244 16.0606349,47.222914 15.2708849,47.192944 C14.9679449,47.180794 14.6544749,47.112754 14.3725949,47.002594 C13.7723849,46.768504 13.5512549,46.389424 13.6314449,45.841864 C13.7245949,45.206014 14.1441749,44.762134 14.7508649,44.724064 C15.2992349,44.690044 15.8508449,44.709484 16.4008349,44.705434 C16.5142349,44.704624 16.6268249,44.705434 16.7961149,44.705434 C16.7515649,44.519134 16.7167349,44.368474 16.6794749,44.218624 C15.7212449,40.406764 14.7703049,36.593284 13.7983049,32.785474 C13.6184849,32.078344 13.7286449,31.479754 14.1312149,30.867394 C17.2902149,26.058424 20.4305849,21.236494 23.5766249,16.418614 C23.8836149,15.948004 24.1897949,15.477394 24.5000249,15.009214 C24.5591549,14.919304 24.6328649,14.837494 24.7673249,14.667394" id="Fill-38" fill="#FF8C38"/>
                            <path d="M19.8187919,4.95573699 L19.8187919,1.97088699 C19.8187919,1.83318699 19.8171719,1.69629699 19.8187919,1.55859699 C19.8374219,0.44484699 20.2837319,0.00825698998 21.4080119,0.00501698998 C22.5193319,0.00177698998 23.6322719,-0.000653010015 24.7444019,0 C26.7272819,0.00177698998 28.7109719,0.00258698998 30.6938519,0.01068699 C30.9101219,0.01149699 31.1304419,0.03417699 31.3410419,0.08277699 C31.8100319,0.18969699 32.1016319,0.49020699 32.1972119,0.96405699 C32.2336619,1.14225699 32.2539119,1.32693699 32.2555319,1.50918699 C32.2628219,2.47227699 32.2563419,3.43536699 32.2660619,4.39845699 C32.2717319,5.00028699 32.1623819,4.96302699 32.8444019,4.96788699 C34.3923119,4.98003699 35.9394119,4.97274699 37.4873219,4.97436699 C39.7350719,4.97598699 41.9820119,4.96869699 44.2289519,4.98975699 C44.6979419,4.99461699 44.9846819,4.85529699 45.2147219,4.42842699 C45.9874619,2.98905699 47.5037819,2.27382699 49.0881419,2.55003699 C50.6303819,2.81976699 51.8785919,4.08174699 52.1313119,5.62722699 C52.3856519,7.18971699 51.6015719,8.77731699 50.1921719,9.52575699 C48.8621519,10.231267 46.5358319,10.296067 45.2446919,8.09124699 C44.9684819,7.61982699 44.6582519,7.44486699 44.1220319,7.46754699 C42.8859719,7.52100699 41.6466719,7.51614699 40.4089919,7.53720699 C40.2850619,7.53882699 40.1603219,7.55421699 40.0015619,7.63035699 C40.1060519,7.69758699 40.2089219,7.76724699 40.3142219,7.83285699 C43.3096019,9.67884699 45.8862119,11.976817 47.8334519,14.927647 C50.3566019,18.750037 51.5918519,22.977427 51.6979619,27.543397 C51.7117319,28.110397 51.5716019,28.627987 51.0240419,28.914727 C50.1767819,29.358607 49.3019819,28.795657 49.2234119,27.757237 C49.1796719,27.186187 49.1837219,26.610277 49.1310719,26.040847 C48.6005219,20.215327 46.0214819,15.459007 41.5624319,11.721667 C39.0190319,9.58974699 36.0520019,8.29131699 32.8241519,7.57122699 C32.6589119,7.53477699 32.4863819,7.52586699 32.2612019,7.49670699 L32.2612019,7.89198699 C32.2612019,8.87775699 32.2628219,9.86433699 32.2603919,10.849297 C32.2595819,11.021017 32.2539119,11.195167 32.2247519,11.363647 C32.1170219,12.005167 31.7800619,12.368857 31.1304419,12.402067 C30.1349519,12.451477 29.1370319,12.440137 28.1399219,12.441757 C25.9845119,12.445807 23.8291019,12.440137 21.6736919,12.439327 C21.6048419,12.438517 21.5368019,12.439327 21.4679519,12.438517 C20.2246019,12.433657 19.8260819,12.035137 19.8204119,10.781257 C19.8163619,9.81816699 19.8196019,8.85507699 19.8196019,7.89198699 L19.8196019,7.42785699 C18.8848619,7.66842699 17.9841419,7.81827699 17.1433619,8.12850699 C9.85660186,10.809607 5.08651186,15.767617 3.37255186,23.461807 C3.08257186,24.761857 2.88088186,26.073247 2.88169186,27.411367 C2.88169186,27.660847 2.85253186,27.919237 2.78368186,28.157377 C2.60629186,28.770547 2.09275186,29.107507 1.48201186,29.044327 C0.901241863,28.985197 0.430631863,28.546177 0.416051863,27.926527 C0.398231863,27.137587 0.426581863,26.343787 0.500291863,25.558087 C0.978191863,20.492347 2.96512186,16.081897 6.33067186,12.282997 C7.88587186,10.526917 9.69379186,9.07296699 11.7066419,7.87254699 C11.8540619,7.78506699 11.9982419,7.68948699 12.1408019,7.59471699 C12.1659119,7.57770699 12.1804919,7.54530699 12.2226119,7.49022699 C12.1108319,7.48050699 12.0257819,7.46511699 11.9399219,7.46592699 C10.5880319,7.47078699 9.23452186,7.49670699 7.88263186,7.47564699 C7.44523186,7.46835699 7.20709186,7.65060699 7.01431186,8.00295699 C6.64738186,8.67282699 6.13222186,9.20499699 5.44048186,9.54114699 C4.05457186,10.215067 2.70511186,10.122727 1.49659186,9.17097699 C0.311561863,8.23542699 -0.258678137,6.99531699 0.112301863,5.46522699 C0.480041863,3.95133699 1.37266186,2.91048699 2.96107186,2.59215699 C4.68151186,2.24790699 6.08038186,2.87241699 6.95032186,4.39035699 C7.19737186,4.82208699 7.51570186,4.99218699 8.00737186,4.98975699 C11.8483919,4.97436699 15.6886019,4.97598699 19.5296219,4.97193699 C19.6081919,4.97193699 19.6867619,4.96302699 19.8187919,4.95573699" id="Fill-40" fill="#955DEF"/>
                            <path d="M24.8147909,39.553186 C24.8301809,38.833906 25.2732509,38.479126 26.1261809,38.503426 C26.8908209,38.524486 27.2950109,38.913286 27.2780009,39.612316 C27.2618009,40.312966 26.7012809,40.857286 26.0152109,40.838656 C25.3210409,40.819216 24.7994009,40.261936 24.8147909,39.553186" id="Fill-42" fill="#FF8C38"/>
                        </g>
                    </g>
                </g>
            </g>
        </g>
    </g>
</svg>